<svg width="238" height="219" fill="none" xmlns="http://www.w3.org/2000/svg"><path d="M233.198 6.6c-3.4-3.7-8.3-6-13-6h-201.4C8.298.6.398 8.5.398 19v145.1c0 10.5 7.9 18.4 18.4 18.4h129.9c.6 0 1.1.2 1.6.5l56.5 35.8-.9-33.1c0-.9.3-1.6.9-2.2.6-.6 1.3-1 2.2-1h10.2c10.5 0 18.4-7.9 18.4-18.4V18.8c.4-4.3-1.3-8.7-4.4-12.2zm-151.1 63.5c-5.8 0-10.2-4.4-10.2-10.2 0-5.8 4.4-10.2 10.2-10.2 5.8 0 10.2 4.4 10.2 10.2 0 5.8-4.3 10.2-10.2 10.2zm78.7 38.8c-.9 4.3-6.5 19.5-24.4 25.5-4.8 1.9-11.3 3.2-16.3 3.2-7.5 0-13.9-2.1-14.2-2.2-.1 0-.3-.1-.4-.2-3-1.4-4.8-4.5-4.8-7.8 0-.5.1-1 .3-1.4 1.4-3 4.5-4.8 7.8-4.8.3 0 .5 0 .8.1.1 0 11.6 2.8 21.7-1 12.7-4.5 15.3-15.1 15.4-15.8 0-.4.1-.8.3-1.1 1.5-3 4.5-4.8 7.8-4.8.6 0 1.1.2 1.7.5 5.5 3.9 5.2 7.7 4.3 9.8zm-1-38.8c-5.8 0-10.2-4.4-10.2-10.2 0-5.8 4.4-10.2 10.2-10.2 5.8 0 10.2 4.4 10.2 10.2 0 5.8-4.3 10.2-10.2 10.2z" fill="#2D324D"/></svg>