<svg width="142" height="134" fill="none" xmlns="http://www.w3.org/2000/svg"><path d="M104.054 111.479a56.816 56.816 0 0 1-14.149 12.217c-1.67.998-3.397 1.9-5.17 2.7-12.246 5.503-26.198 5.86-39.247 2.696C18.055 122.443 3.495 98.216 1.649 71.34 1.153 64.076.042 56.23 2.985 49.317c2.942-6.914 8.892-11.203 15.623-14.184 4.889-2.179 10.167-3.64 14.963-4.832a38.497 38.497 0 0 1 25.894 2.671c5.639 2.678 9.642 7.328 14.399 11.242l1.518 1.24a142.178 142.178 0 0 0 15.08 10.602c7.978 4.867 16.145 9.456 21.241 17.627 8.132 13.02 1.272 27.197-7.649 37.796z" fill="#fff"/><path d="M75.364 45.453c-.507-.407-1.013-.821-1.518-1.243-4.739-3.928-8.763-8.57-14.399-11.238a38.519 38.519 0 0 0-25.894-2.671C22.147 33.133 7.998 37.493 2.96 49.32.013 56.216 1.128 64.076 1.628 71.34c1.867 26.886 16.427 51.102 43.86 57.751 14.945 3.621 31.015 2.628 44.417-5.396a56.816 56.816 0 0 0 14.149-12.217c8.928-10.599 15.781-24.776 7.656-37.796-5.092-8.189-13.255-12.76-21.237-17.627a142.541 142.541 0 0 1-15.11-10.603z" stroke="#263238" stroke-miterlimit="10"/><path d="M33.803 93.392a39.567 39.567 0 0 0-6.624 2.678M47.788 90.717c-3.338.288-6.65.815-9.914 1.575M44.877 90.038s-12.874-7.499-28.415-1.485" stroke="#263238" stroke-linecap="round" stroke-linejoin="round"/><path opacity=".1" d="M104.054 111.479a56.816 56.816 0 0 1-14.149 12.217c-1.67.998-3.397 1.9-5.17 2.7a40.274 40.274 0 0 1-4.125-1.514c-8.042-3.446-14.792-9.285-21.384-15.024-3.975-3.45-8.017-6.981-12.781-9.253a29.385 29.385 0 0 0-20.613-1.7 23.148 23.148 0 0 1 13.631-7.499c-3.403-3.1-8.138-4.4-12.741-4.482-4.603-.082-7.143.482-11.635 1.49 1.507-2.764 5.496-5.271 8.646-5.196a78.126 78.126 0 0 1-8.953-.633c-4.064-.657-5.885-5.438-6.485-9.506-1.679-11.206.021-23.137 6.139-32.661a33.164 33.164 0 0 1 4.178-5.285c4.885-2.179 10.167-3.64 14.963-4.832a38.486 38.486 0 0 1 25.89 2.671c5.643 2.678 9.642 7.328 14.403 11.242a142.208 142.208 0 0 0 16.598 11.842c7.978 4.867 16.141 9.456 21.241 17.627 8.128 13.02 1.268 27.197-7.653 37.796z" fill="#000"/><path d="M108.546 111.154a83.05 83.05 0 0 0 7.571 5.6c5.121.357 2.825 6.538 2.825 6.538l-4.385 2.822s-7.51-5.968-11.628-7.9c-4.117-1.932 5.617-7.06 5.617-7.06z" fill="#fff"/><path opacity=".3" d="M72.135 45.957s-.714-6.95-1.82-8.903L53.29 33.579v-1.318s.393-2.292-3.4-3.728c-3.792-1.435-11.695.429-13.734 1.971-2.04 1.543-1.293 4.2-1.293 4.2s-6.85 3.46-9.928 4.778a78.506 78.506 0 0 0-7.356 3.89s-1.393 15.976-1.118 19.687c.275 3.71-.225 7.203.093 9.256s.571 3.214 2.725 4.975c2.153 1.76 4.113 4.306 9.763 1.785l-.79-.625 37.19-12.527 6.692-19.966z" fill="#000"/><path d="M72.135 45.957s-.714-6.95-1.82-8.903L53.29 33.579v-1.318s.393-2.292-3.4-3.728c-3.792-1.435-11.695.429-13.734 1.971-2.04 1.543-1.293 4.2-1.293 4.2s-6.85 3.46-9.928 4.778a78.506 78.506 0 0 0-7.356 3.89s-1.393 15.976-1.118 19.687c.275 3.71-.225 7.203.093 9.256s.571 3.214 2.725 4.975c2.153 1.76 4.113 4.306 9.763 1.785l-.79-.625 37.19-12.527 6.692-19.966z" fill="#00CD7E"/><path opacity=".05" d="M72.135 45.957s-.714-6.95-1.82-8.903L53.29 33.579v-1.318s.393-2.292-3.4-3.728c-3.792-1.435-11.695.429-13.734 1.971-2.04 1.543-1.293 4.2-1.293 4.2s-6.85 3.46-9.928 4.778a78.506 78.506 0 0 0-7.356 3.89s-1.393 15.976-1.118 19.687c.275 3.71-.225 7.203.093 9.256s.571 3.214 2.725 4.975c2.153 1.76 4.113 4.306 9.763 1.785l-.79-.625 37.19-12.527 6.692-19.966z" fill="#000"/><path opacity=".1" d="M70.54 37.897h-7.122a2.828 2.828 0 0 0-2.785 2.367l-3.51 21.116s-4.829.4-8.25 2.893c-3.42 2.493-11.838-15.306-25.137-15.313 0 0 3.828 8.746 4.675 15.713 0 0-8.31-.904-9.689 2.35-1.378 3.253.625 9.349 4.14 6.988 3.513-2.36 6.827-6.3 9.174-3.81 2.346 2.489 12.855 3.832 12.855 3.832l16.145-8.139 6.264-2.943 3.24-25.054z" fill="#000"/><path opacity=".4" d="M47.934 27.43s4.043 1.121 4.696 2.478c.654 1.357.586 4.792.586 4.792a16.591 16.591 0 0 1-4.346 5.982L45.852 34.7l.272 6.786s-5.714-.95-8.153-2.779l-2.425-1.832s-1.05-3.446-.896-4.614c.153-1.167 4.514-3.539 4.514-3.539l8.77-1.292z" fill="#fff"/><path d="M115.264 132.017c-.115-.243 1.657-3.371.271-6.557-1.385-3.185-3.6-1.957-3.6-1.957s-6.295-4.007-8.927-5.274a45.047 45.047 0 0 1-5.493-3.268l-2.8 3.768 2.586 7.999 17.963 5.289z" fill="#00CD7E"/><path d="m111.707 123.31 8.085 4.939s5.685-3.646 8.396-6.164c2.71-2.517 8.799-7.877 8.799-7.877l3.878-5.218s-2.689-3.328-7.171-.653c-5.792 3.449-12.856 8.449-17.552 8.406 0 0 .929 5.785-4.389 6.567" fill="#00CD7E"/><path d="M46.566 6.542s3.668 5.55 4.336 7.346c.667 1.796 1.207 4.457 1.071 5.735-.136 1.279-1.475 8.135-2.143 8.335l-.65.736.432 2.903s-2.856 4.96-11.31 1.325c0 0-.324-5.792-1.353-7.61-1.028-1.818-2.556.357-4.096-4.91-1.539-5.268 3.36-10.77 3.36-10.77l10.353-3.09z" fill="#fff"/><path opacity=".5" d="M137.344 107.369s-4.16.714-5.507 3.185c-1.346 2.472-3.928 7.032-4.824 9.242-.897 2.211-8.185 7.55-8.185 7.55l.967.903s5.946-3.678 9.539-7.171c3.592-3.492 11.502-12.284 11.502-12.284s-.567-.579-3.492-1.425zM95.733 117.347l-1.017 1.382 3.16 6.56 17.398 6.253.804-2.55s.268-2.585-5.839-4.55c-6.106-1.964-9.827-3.26-11.563-4.61-1.736-1.35-2.943-2.485-2.943-2.485z" fill="#fff"/><path d="M38.292 68.637s-5.328-.804-7.813 3.553c-2.486 4.357-2.232 6.246-2.232 6.246s3.52 3.196 8.36 3.014c4.838-.182 11.898-5.732 14.184-7.517 2.286-1.786 8.089-6.971 12.042-5.903l.457-3.74s-.386-1.678-3.764-1.224c-3.378.453-4.707 2.378-5.796 2.378-1.09 0-2.121-1.046-4.31 2.693-.022-.007-7.707 1.357-11.128.5z" fill="#fff"/><path d="M45.227 14.52c.114.698.275 1.388.482 2.064.079.337.228.652.44.925.403.432 1.07.543 1.657.632.1.007.194.047.267.115.05.076.072.166.065.257a3.435 3.435 0 0 1-.586 1.903" stroke="#263238" stroke-linecap="round" stroke-linejoin="round"/><path opacity=".1" d="m99.305 112.876-3.572 4.453s3.929 3.624 7.982 4.967c4.053 1.343 11.163 3.878 12.352 5.832l-.457-2.325s-11.113-6.817-13.663-8.446a5.883 5.883 0 0 1-2.642-4.481z" fill="#000"/><path opacity=".1" d="m111.707 123.31 7.114 4.036s3.514-2.404 5.238-4.175c1.725-1.771 3.846-3.735 5.171-7.703 1.804-5.485 6.975-8.099 6.975-8.099s-7.193 3.389-10.935 6.035c-3.743 2.646-7.396 3.764-9.517 3.571-.021.025 1.682 5.414-4.046 6.335z" fill="#000"/><path d="M42.72 21.38s2.797 2.193 5.714 1.372c-.014 0-2.753 5.428-5.714-1.372z" fill="#fff" stroke="#263238" stroke-linecap="round" stroke-linejoin="round"/><path d="M42.617 16.642c.078.603-.104 1.124-.407 1.167-.304.043-.615-.432-.697-1.021-.082-.59.097-1.125.404-1.168.307-.043.632.418.7 1.022zM48.706 15.542c.075.607-.104 1.128-.408 1.167-.303.04-.621-.428-.714-1.014-.093-.585.097-1.132.404-1.171.307-.04.635.414.718 1.018z" fill="#263238"/><path d="M42.185 14.081s-1.629-.84-2.79.96M46.36 12.96s1.724-1.475 2.72 0M36.653 19.627s-1.05-1.546-2.143-1.5c-1.092.046-1.546 1.6-1.15 3.1.397 1.5 2.047 3.592 3.297 3.396.7-.094 1.34-.451 1.785-1" stroke="#263238" stroke-linecap="round" stroke-linejoin="round"/><path d="M46.691 7.789c1.175.978 2.422 2.042 3.018 3.482.525 1.224.643 2.585 1.125 3.824.51 1.321 1.071 2.707 1.114 4.15a17.434 17.434 0 0 1-.521 3.978 22.063 22.063 0 0 1-.797 3.314c-.582 1.546-1.653 2.5-3.092 3.232-1.05.532-2.793 1.293-3.928.575-.658-.429-1.65-1.66-2.472-2.796M36.653 24.623s1.85 4.542 1.403 7.735" stroke="#263238" stroke-linecap="round" stroke-linejoin="round"/><path d="M36.178 18.866a1.785 1.785 0 0 0 .714-1.6c-.068-.714-.55-1.346-.457-2.042.074-.334.194-.656.357-.957a4.007 4.007 0 0 0-.225-3.629s5.889.275 8.646-1.478c2.757-1.753 4.86-6.239 3.193-8.381-1.668-2.143-4.918.782-7.325 1.103-2.407.321-10.977 1.69-12.342 5-1.364 3.31.715 4.489.779 7.638.064 3.15.064 9.117 4.774 8.57 0 0-1.76-2.281-.539-4.642.847-.985 2.425.418 2.425.418z" fill="#263238"/><path d="M47.72 4.503a7.381 7.381 0 0 1 2.821 5.171c.26 2.36 4.45 6.95 1.428 9.567 0 0-.714-2.782-1.114-4.15-.4-1.367-.946-3.878-1.639-4.742-.693-.864-4.374-3.878-4.374-3.878l2.878-1.968z" fill="#263238"/><path d="M37.196 32.258s2.903 1.914 8.299 1.989l.632 7.235s-6.07-.46-10.578-4.61c0 0-1.22-3.214-.896-4.614.325-1.4 3.214-2.764 3.214-2.764" stroke="#263238" stroke-linecap="round" stroke-linejoin="round"/><path d="m49.398 29.023.172 2.585a10.738 10.738 0 0 1-4.075 2.65l3.378 6.428s4.029-3.136 4.428-6.428c0 0 .036-3.375-.667-4.34-.704-.963-3.26-1.428-3.26-1.428" stroke="#263238" stroke-linecap="round" stroke-linejoin="round"/><path opacity=".8" d="M33.05 9.028c.428-1.071 1.61-1.725 2.76-1.896 1.15-.172 2.332-.054 3.496-.083a8.996 8.996 0 0 0 4.568-1.292 6.11 6.11 0 0 0 2.757-3.775" stroke="#fff" stroke-linecap="round" stroke-linejoin="round"/><path opacity=".8" d="M30.268 8.817c.714-2.21 3.092-3.57 5.414-3.77 1.15-.1 2.314.031 3.446-.1 1.132-.133 2.342-.608 2.939-1.594" stroke="#fff" stroke-linecap="round" stroke-linejoin="round"/><path d="M29.047 79.06c-5.604 2.904-7.593-.088-10.714-2.56-3.12-2.47-1.071-6.895-1.725-13.984-.653-7.089.972-19.145.972-19.145s1.396-.318 5.27-2.689c3.875-2.371 12.025-5.982 12.025-5.982" stroke="#263238" stroke-linecap="round" stroke-linejoin="round"/><path d="M34.596 68.33s-.89-2.814-3.396-2.89c-2.507-.074-6.464 1.072-9.285 6.39M30.629 65.273a1.318 1.318 0 0 1-.454-.107 10.914 10.914 0 0 0-6.428-.293M22.294 47.217c4.564 5.043 6.785 11.714 8.892 18.177M53.29 33.58s8.275 1.97 12.318 2.442c4.042.471 4.695 1.035 4.695 1.035l.754 2.818" stroke="#263238" stroke-linecap="round" stroke-linejoin="round"/><path d="M91.855 38.493 63.68 39.575l-2.303 28.98h4.828l24.466-5.479 3.078-23.89-1.893-.693z" fill="#fff"/><path d="m62.843 69.412 30.82-29.54-2.993 23.205-27.827 6.335z" fill="#00CD7E"/><path opacity=".7" d="m62.843 69.412 30.82-29.54-2.993 23.205-27.827 6.335z" fill="#fff"/><path d="m62.843 68.637 2.465-27.955 28.44-1.496-3.078 23.89-27.827 5.56z" stroke="#263238" stroke-linecap="round" stroke-linejoin="round"/><path d="M81.76 52.731c-.19 1.7-1.1 2.993-2.029 2.889-.928-.103-1.528-1.571-1.335-3.275.192-1.703 1.1-2.992 2.032-2.889.932.104 1.525 1.572 1.332 3.275zM90.67 63.077s13.023-.358 17.094 2.317c4.071 2.675 6.464 16.174 5.9 23.334-.564 7.16-5.478 23.598-5.478 23.598l-9.41-10.653s-4.642-16.856-2.107-23.459c0 0-12.499.715-17.416-.839 0 0-4.41-7.217-11.967-9.606l23.383-4.693z" fill="#263238"/><path d="M110.175 112.604a64.327 64.327 0 0 1-8.956-10.356c-4.554-7.035-10.85-13.788-17.327-19.059-5.218-4.232-6.4-11.124-12.835-14.584C60.39 62.89 51.169 74.25 47.72 76.55c-3.45 2.3-9.428 4.921-9.428 4.921s2.178 8.189 8.57 9.157c6.393.967 12.878-3.447 15.942-1.315s5.332 11.657 15.449 17.238c8.27 4.56 19.537 9.006 25.355 12.006 1.292.672 2.257 1.379 2.989 1.786 2.046 1.085 4.189 2.375 6.206 3.653l6.975 4.246s7.003-4.139 9.692-7.956c.357-.515 1.103-1.879 1.803-3.214 1.518-2.882 3.446-5.468 6.114-6.893 1.842-.996 3.485-1.292 3.446-1.396-.175-.328-3.521-2.039-5.792-1.103-4.807 1.985-14.421 9.617-18.959 9.049a33.938 33.938 0 0 1-5.907-4.125z" stroke="#263238" stroke-miterlimit="10"/><path d="M110.175 112.604c-4.193 1.682-5.882 4.311-6.532 5.968-5.813-3.018-17.084-7.446-25.355-12.007-10.116-5.599-12.366-15.105-15.448-17.234-3.082-2.128-9.564 2.3-15.945 1.314-6.382-.985-8.603-9.177-8.603-9.177s5.971-2.586 9.42-4.886c3.45-2.3 11.396-13.67 23.33-7.945 6.59 3.157 7.618 10.356 12.835 14.584 6.464 5.253 12.774 12.024 17.327 19.059a63.157 63.157 0 0 0 8.971 10.324z" fill="#263238"/><path d="M78.667 76.075s-3.214-6.556-8.403-7.828" stroke="#fff" stroke-linecap="round" stroke-linejoin="round"/><path d="M61.747 63.016c-3.571-.775-7.467 3.16-9.113 2.421-1.225-.546-3.236 2.693-3.236 2.693a53.93 53.93 0 0 1-9.999.507c-4.796-.307-7.067.628-8.763 3.192l-2.371 6.278s6.252 5.603 12.927 2.34c6.674-3.265 15.541-13.103 21.651-13.07" stroke="#263238" stroke-linecap="round" stroke-linejoin="round"/><path d="M111.436 123.142s5.842.479 4.474-6.502" stroke="#263238" stroke-miterlimit="10"/><path d="M138.972 112.326c-.432.86-5.788 5.421-10.402 9.406 0-.061 1.292-2.5 1.828-3.532 1.225-2.293 4.4-8.571 10.435-9.406.857.514-1.861 3.532-1.861 3.532z" fill="#263238"/><path d="M136.676 107.419c-6.107 1.214-7.499 9.049-9.663 12.377-2.164 3.329-8.185 7.857-8.185 7.857M115.535 125.657c.996 1.821.525 3.928 0 5.253a11.019 11.019 0 0 1-.957 1.885c-8.646-1.428-17.288-6.071-17.288-6.071l-2.217-6.892-.357-1.103 3.356-4.521" stroke="#263238" stroke-miterlimit="10"/><path d="M115.535 130.91a11.019 11.019 0 0 1-.957 1.885c-8.646-1.428-17.288-6.071-17.288-6.071l-2.217-6.892c1.114 1.457 3.185 3.589 6.285 4.464 4.199 1.193 11.97 2.589 14.177 6.614z" fill="#263238"/><path d="m61.376 67.544 2.303-27.969 28.176-1.082 1.893.693" stroke="#263238" stroke-linecap="round" stroke-linejoin="round"/><path d="M115.871 119.796s3.853.69 6.813-1.721c2.961-2.41 7.743-7.874 7.743-7.874" stroke="#263238" stroke-miterlimit="10"/><path d="M119.792 116.325s-.932 1.4 0 4.211M122.524 115a5.71 5.71 0 0 0 .357 4.211M125.784 113.097s-.778 2.339 0 4.403" stroke="#263238" stroke-linecap="round" stroke-linejoin="round"/><path d="m98.822 113.625-3.089 3.722s3.11 3.399 7.5 4.813c4.389 1.415 12.234 3.811 12.884 6.368" stroke="#263238" stroke-miterlimit="10"/></svg>