<svg width="717" height="774" fill="none" xmlns="http://www.w3.org/2000/svg"><path d="M476.576 50.448h-364.81c-8.553 0-15.487 6.934-15.487 15.487v204.517c0 8.554 6.934 15.488 15.487 15.488h364.81c8.553 0 15.487-6.934 15.487-15.488V65.935c0-8.553-6.934-15.487-15.487-15.487z" fill="#fff"/><path d="M492.063 65.964v6.123H96.279v-6.123a15.587 15.587 0 0 1 15.487-15.573h364.881a15.472 15.472 0 0 1 15.416 15.573z" fill="#00CD7E"/><path d="M476.576 50.448h-364.81c-8.553 0-15.487 6.934-15.487 15.487v204.517c0 8.554 6.934 15.488 15.487 15.488h364.81c8.553 0 15.487-6.934 15.487-15.488V65.935c0-8.553-6.934-15.487-15.487-15.487z" stroke="#263238" stroke-width="1.21" stroke-linecap="round" stroke-linejoin="round"/><path d="M492.063 65.964v6.123H96.279v-6.123a15.587 15.587 0 0 1 15.487-15.573h364.881a15.472 15.472 0 0 1 15.416 15.573v0z" stroke="#263238" stroke-width="1.21" stroke-linecap="round" stroke-linejoin="round"/><path d="M140.733 61.246a3.956 3.956 0 0 1-4.68 3.963 3.956 3.956 0 0 1-2.945-5.379 3.955 3.955 0 0 1 3.653-2.47 3.96 3.96 0 0 1 3.972 3.886zM161.411 61.246a3.956 3.956 0 0 1-4.68 3.963 3.956 3.956 0 0 1-2.945-5.379 3.955 3.955 0 0 1 3.653-2.47 3.96 3.96 0 0 1 3.972 3.886zM178.131 65.204a3.958 3.958 0 1 0 0-7.916 3.958 3.958 0 0 0 0 7.916z" fill="#263238"/><path d="M238.044 89.21H126.135a6.381 6.381 0 0 0-6.382 6.38v53.833a6.381 6.381 0 0 0 6.382 6.381h111.909a6.381 6.381 0 0 0 6.381-6.381V95.59a6.381 6.381 0 0 0-6.381-6.38zM127.081 147.444h108.095" stroke="#263238" stroke-width="1.21" stroke-linecap="round" stroke-linejoin="round"/><path d="M147.659 134.724h-12.547v12.548h12.547v-12.548zM166.014 118.233h-12.547v29.211h12.547v-29.211zM186.693 123.252h-12.548v24.479h12.548v-24.479zM208.432 98.874h-12.548v48.011h12.548v-48.01zM230.143 99.247h-12.548v48.01h12.548v-48.01z" fill="#00CD7E" stroke="#263238" stroke-width="1.21" stroke-miterlimit="10"/><path d="M116.842 189.833h10.239M116.842 209.622h10.239M116.842 229.44h10.239M116.842 249.244h10.239M149.667 264.186v-7.959M165.9 264.186v-7.959M182.132 264.186v-7.959M198.38 264.186v-7.959M214.598 264.186v-7.959M230.831 264.186v-7.959M247.064 264.186v-7.959M263.311 264.186v-7.959M279.544 264.186v-7.959M295.777 264.186v-7.959M312.01 264.186v-7.959M328.257 264.186v-7.959M344.49 264.186v-7.959M360.723 264.186v-7.959M376.941 264.186v-7.959M392.572 264.186v-7.959M408.202 264.186v-7.959M423.804 264.186v-7.959" stroke="#263238" stroke-width="1.21" stroke-linecap="round" stroke-linejoin="round"/><path d="M465.132 177.716v76.934c0 5.277-5.363 9.536-11.974 9.536H128.845a12.92 12.92 0 0 1-5.729-1.111 12.916 12.916 0 0 1-4.653-3.521 8.145 8.145 0 0 1-1.721-4.847v-76.991c0-5.191 5.363-9.536 11.974-9.536h324.428c6.625 0 11.988 4.258 11.988 9.536z" stroke="#00CD7E" stroke-width="1.21" stroke-linecap="round" stroke-linejoin="round"/><path d="M366.43 28.68 262.895 168.137l-39.593 53.33-43.249-27.547-52.929 70.266h-.774a9.55 9.55 0 0 1-8.217-4.632l59.482-78.87 43.221 27.389 29.612-39.793L358.5 22.944l7.93 5.736z" fill="#263238"/><path d="m340.159 30.487 38.059-23.073-10.526 39.908-6.711-18.47-20.822 1.635z" fill="#263238"/><path d="M682.957 469.578H91.719l-68.216 60.658M92.091 427.117V309.199M92.091 462.723v-22.8" stroke="#263238" stroke-width="1.21" stroke-linecap="round" stroke-linejoin="round"/><path d="M529.146 235.621a62.818 62.818 0 0 1-48.756 61.217h-.186c-1.649.358-3.284.688-4.991.932a64.647 64.647 0 0 1-8.976.645 62.836 62.836 0 0 1-2.324-125.618h2.868a62.173 62.173 0 0 1 24.608 5.277 62.851 62.851 0 0 1 37.757 57.547z" fill="#FFB000" stroke="#2E353A" stroke-width="1.21" stroke-linecap="round" stroke-linejoin="round"/><path opacity=".4" d="M491.504 178.088c-72.561-3.771-72.905 76.777-72.905 76.777s-11.07-26.285 7.012-55.381c10.038-16.276 27.677-23.46 41.285-26.644a61.91 61.91 0 0 1 24.608 5.248z" fill="#fff"/><path d="M529.146 235.621a62.826 62.826 0 0 1-48.928 61.217 61.072 61.072 0 0 1-13.967 1.577 62.842 62.842 0 1 1-2.323-125.661h2.323a62.815 62.815 0 0 1 24.071 4.77 62.832 62.832 0 0 1 38.824 58.097v0z" stroke="#263238" stroke-width="1.21" stroke-linecap="round" stroke-linejoin="round"/><path d="M529.146 235.621a62.826 62.826 0 0 1-48.928 61.217h-2.323a62.85 62.85 0 0 1-62.247-55.821 62.859 62.859 0 0 1 11.143-43.324 62.857 62.857 0 0 1 37.137-24.939h2.323a62.815 62.815 0 0 1 24.071 4.77 62.832 62.832 0 0 1 38.824 58.097v0z" stroke="#263238" stroke-width="1.21" stroke-linecap="round" stroke-linejoin="round"/><path d="m487.904 274.883 1.621 6.64-10.87 2.653-1.62-6.625c-9.723 0-17.538-6.324-20.076-16.463l-.746-3.011 11.988-4.302.76 3.14c1.506 6.152 5.578 9.121 10.641 7.873a7.79 7.79 0 0 0 6.496-8.891 6.827 6.827 0 0 0-.287-1.204c-1.434-5.908-8.231-9.622-16.09-13.437-9.292-4.503-18.871-10.21-21.51-20.965-2.552-10.482.66-19.215 8.948-23.546l-1.62-6.64 10.841-2.652 1.635 6.625c9.421-.129 16.448 6.08 19.029 16.806l.531 2.18-11.974 4.302-.603-2.409c-1.591-6.525-4.947-9.278-9.407-8.189-4.459 1.09-6.324 4.503-5.019 9.795 1.434 5.922 8.318 9.493 16.09 13.465 9.192 4.66 18.886 10.21 21.51 20.936 2.71 10.339-1.52 19.546-10.268 23.919z" stroke="#263238" stroke-width="1.21" stroke-miterlimit="10"/><path d="m487.904 274.883 1.621 6.64-10.87 2.653-1.62-6.625c-9.723 0-17.538-6.324-20.076-16.463l-.746-3.011 11.988-4.302.76 3.14c1.506 6.152 5.578 9.121 10.641 7.873a7.79 7.79 0 0 0 6.496-8.891 6.827 6.827 0 0 0-.287-1.204c-1.434-5.908-8.231-9.622-16.09-13.437-9.292-4.503-18.871-10.21-21.51-20.965-2.552-10.482.66-19.215 8.948-23.546l-1.62-6.64 10.841-2.652 1.635 6.625c9.421-.129 16.448 6.08 19.029 16.806l.531 2.18-11.974 4.302-.603-2.409c-1.591-6.525-4.947-9.278-9.407-8.189-4.459 1.09-6.324 4.503-5.019 9.795 1.434 5.922 8.318 9.493 16.09 13.465 9.192 4.66 18.886 10.21 21.51 20.936 2.71 10.339-1.52 19.546-10.268 23.919z" fill="#F3D44A" stroke="#2E353A" stroke-width="1.21" stroke-linecap="round" stroke-linejoin="round"/><path d="m434.129 289.639 13.279-.602M427.748 285.223l11.572-.976M422.557 280.576l11.572-.989M420.965 192.041h9.924M425.87 187.481l9.88-.444M432.064 182.892l10.411-.989" stroke="#263238" stroke-width="1.21" stroke-linecap="round" stroke-linejoin="round"/><path opacity=".3" d="M480.39 296.838h-.186a62.82 62.82 0 0 1-49.727-9.788 62.815 62.815 0 0 1-24.318-69.136 62.8 62.8 0 0 1 32.649-38.763 62.813 62.813 0 0 1 25.106-6.354h1.735c-15.315 4.833-41.013 17.208-47.882 42.905-9.693 36.539 12.161 78.053 62.623 81.136z" fill="#000"/><path d="M564.724 136.718a38.062 38.062 0 0 1-45.53 13.207l-.215-.101a39.252 39.252 0 0 1-3.47-1.72 33.36 33.36 0 0 1-3.657-2.295 38.072 38.072 0 0 1 41.859-63.383l.846.545c.387.215.774.502 1.176.775.401.272 1.161.846 1.72 1.29a38.087 38.087 0 0 1 7.271 51.682z" fill="#FFB000" stroke="#2E353A" stroke-width="1.21" stroke-linecap="round" stroke-linejoin="round"/><path opacity=".4" d="M507.378 137.234s-6.209-18.298 2.051-31.749c10.382-16.878 26.285-24.579 47.924-20.42 0 0-11.73-7.93-31.376-2.309-19.646 5.621-30.171 32.652-18.599 54.478z" fill="#fff"/><path d="M564.724 136.732a38.075 38.075 0 0 1-45.53 13.178 36.716 36.716 0 0 1-7.428-4.087 38.054 38.054 0 0 1-8.349-51.639 38.057 38.057 0 0 1 51.097-11.198c.387.229.788.487 1.161.76a38.056 38.056 0 0 1 9.049 52.986v0z" stroke="#263238" stroke-width="1.21" stroke-linecap="round" stroke-linejoin="round"/><path d="M564.724 136.732a38.072 38.072 0 0 1-45.53 13.178l-1.147-.76a38.058 38.058 0 0 1 36.467-66.164c.387.229.788.487 1.161.76a38.056 38.056 0 0 1 9.049 52.986v0z" stroke="#263238" stroke-width="1.21" stroke-linecap="round" stroke-linejoin="round"/><path d="m530.652 141.78-1.506 3.843-6.295-2.481 1.506-3.858a12.328 12.328 0 0 1-4.159-15.1l.703-1.735 7.442 2.022-.717 1.836c-1.434 3.57-.444 6.438 2.495 7.6a4.706 4.706 0 0 0 6.31-2.122c.113-.227.209-.462.287-.703 1.348-3.456-.717-7.629-3.255-12.246-3.012-5.464-5.736-11.63-3.313-17.854 2.423-6.223 7.041-9.278 12.634-8.518l1.52-3.843 6.352 2.481-1.505 3.814c4.717 3.227 6.008 8.604 3.57 14.971l-.502 1.248-7.442-2.022.559-1.434c1.434-3.771.789-6.31-1.735-7.328-2.524-1.018-4.689 0-5.894 3.098-1.362 3.456.803 7.571 3.241 12.246 2.868 5.521 5.736 11.644 3.327 17.853a12.247 12.247 0 0 1-13.623 8.232z" stroke="#263238" stroke-width="1.21" stroke-miterlimit="10"/><path d="m530.652 141.78-1.506 3.843-6.295-2.481 1.506-3.858a12.328 12.328 0 0 1-4.159-15.1l.703-1.735 7.442 2.022-.717 1.836c-1.434 3.57-.444 6.438 2.495 7.6a4.706 4.706 0 0 0 6.31-2.122c.113-.227.209-.462.287-.703 1.348-3.456-.717-7.629-3.255-12.246-3.012-5.464-5.736-11.63-3.313-17.854 2.423-6.223 7.041-9.278 12.634-8.518l1.52-3.843 6.352 2.481-1.505 3.814c4.717 3.227 6.008 8.604 3.57 14.971l-.502 1.248-7.442-2.022.559-1.434c1.434-3.771.789-6.31-1.735-7.328-2.524-1.018-4.689 0-5.894 3.098-1.362 3.456.803 7.571 3.241 12.246 2.868 5.521 5.736 11.644 3.327 17.853a12.247 12.247 0 0 1-13.623 8.232z" fill="#F3D44A" stroke="#2E353A" stroke-width="1.21" stroke-linecap="round" stroke-linejoin="round"/><path opacity=".3" d="M553.61 82.44c-10.382-1.85-23.532-2.867-30.616 1.736-13.035 8.36-21.151 18.9-21.022 35.979.129 17.079 16.075 29.053 16.075 29.053l.932.674a37.322 37.322 0 0 1-7.17-4.001 38.06 38.06 0 0 1-8.734-51.27 38.057 38.057 0 0 1 50.578-12.113l-.043-.057z" fill="#000"/><path d="M439.378 121.345a33.554 33.554 0 0 1-26.529 32.294h-.215c-1.119.2-2.252.358-3.384.459a33.498 33.498 0 0 1-4.862-66.767h2.123c.43 0 1.262 0 1.907.086a33.54 33.54 0 0 1 30.96 33.928z" fill="#FFB000" stroke="#2E353A" stroke-width="1.06" stroke-linecap="round" stroke-linejoin="round"/><path opacity=".4" d="M397.921 150.283s-13.609-10.21-14.326-24.091c-.86-17.452 6.883-30.974 24.694-38.718 0 0-12.476.086-23.977 13.953-11.501 13.867-5.736 38.747 13.609 48.856z" fill="#fff"/><path d="M439.392 121.359a33.569 33.569 0 0 1-26.558 32.265c-2.444.53-4.941.776-7.442.732a33.572 33.572 0 0 1-22.631-56.48 33.571 33.571 0 0 1 22.43-10.545c.406-.022.813-.022 1.219 0a33.57 33.57 0 0 1 32.982 34.028z" stroke="#263238" stroke-width="1.06" stroke-linecap="round" stroke-linejoin="round"/><path d="M439.392 121.359a33.569 33.569 0 0 1-26.558 32.265h-1.219a33.572 33.572 0 0 1-32.527-30.321 33.568 33.568 0 0 1 26.103-36.001c.406-.022.813-.022 1.219 0a33.57 33.57 0 0 1 32.982 34.057v0z" stroke="#263238" stroke-width="1.06" stroke-linecap="round" stroke-linejoin="round"/><path d="m417.122 141.966.817 3.542-5.822 1.334-.817-3.557a10.882 10.882 0 0 1-10.554-8.919l-.359-1.606 6.425-2.237.401 1.692c.76 3.284 2.868 4.904 5.593 4.302a4.16 4.16 0 0 0 3.542-4.589 4.732 4.732 0 0 0-.144-.645c-.745-3.198-4.302-5.206-8.475-7.299-4.918-2.481-9.966-5.593-11.3-11.343-1.333-5.751.502-10.253 4.948-12.49l-.803-3.557 5.807-1.319.803 3.528c5.034 0 8.676 3.298 10.038 9.105l.259 1.162-6.425 2.237-.301-1.305c-.789-3.484-2.567-4.99-4.904-4.474-2.338.516-3.413 2.337-2.753 5.191.745 3.198 4.302 5.12 8.474 7.299 4.876 2.567 10.038 5.607 11.3 11.343a10.813 10.813 0 0 1-5.75 12.605z" stroke="#263238" stroke-width="1.06" stroke-miterlimit="10"/><path d="m417.122 141.966.817 3.542-5.822 1.334-.817-3.557a10.882 10.882 0 0 1-10.554-8.919l-.359-1.606 6.425-2.237.401 1.692c.76 3.284 2.868 4.904 5.593 4.302a4.16 4.16 0 0 0 3.542-4.589 4.732 4.732 0 0 0-.144-.645c-.745-3.198-4.302-5.206-8.475-7.299-4.918-2.481-9.966-5.593-11.3-11.343-1.333-5.751.502-10.253 4.948-12.49l-.803-3.557 5.807-1.319.803 3.528c5.034 0 8.676 3.298 10.038 9.105l.259 1.162-6.425 2.237-.301-1.305c-.789-3.484-2.567-4.99-4.904-4.474-2.338.516-3.413 2.337-2.753 5.191.745 3.198 4.302 5.12 8.474 7.299 4.876 2.567 10.038 5.607 11.3 11.343a10.813 10.813 0 0 1-5.75 12.605z" fill="#F3D44A" stroke="#2E353A" stroke-width="1.06" stroke-linecap="round" stroke-linejoin="round"/><path opacity=".3" d="M404.273 87.388c-8.489 3.829-18.527 9.636-21.395 16.52-5.32 12.576-5.98 24.277 2.624 36.653 8.604 12.375 26.171 13.121 26.171 13.121h1.018a32.4 32.4 0 0 1-7.17.688 33.57 33.57 0 0 1-1.119-66.968l-.129-.014z" fill="#000"/><path d="M560.928 687.163a228.183 228.183 0 0 1-56.815 49.057 204.105 204.105 0 0 1-20.764 10.841c-49.172 22.098-105.198 23.532-157.597 10.826-110.16-26.701-168.624-123.983-176.038-231.906-1.993-29.168-6.453-60.673 5.364-88.435 11.816-27.762 35.706-44.984 62.737-56.958 19.632-8.748 40.826-14.613 60.085-19.402a154.585 154.585 0 0 1 103.979 10.726c22.643 10.755 38.718 29.426 57.819 45.142l6.094 4.976a571.051 571.051 0 0 0 60.558 42.576c32.036 19.545 64.831 37.972 85.295 70.782 32.652 52.284 5.105 109.213-30.717 151.775z" fill="#fff"/><path d="M445.721 422.03a403.87 403.87 0 0 1-6.095-4.99c-19.029-15.774-35.19-34.416-57.819-45.128a154.67 154.67 0 0 0-103.979-10.726c-45.802 11.371-102.617 28.88-122.851 76.375-11.83 27.69-7.356 59.252-5.349 88.42 7.5 107.966 65.964 205.205 176.124 231.906 60.013 14.541 124.543 10.555 178.361-21.667a228.183 228.183 0 0 0 56.815-49.057c35.85-42.562 63.369-99.491 30.745-151.775-20.449-32.882-53.23-51.237-85.28-70.782a572.3 572.3 0 0 1-60.672-42.576z" stroke="#263238" stroke-width="1.21" stroke-miterlimit="10"/><path d="M278.831 614.53a158.913 158.913 0 0 0-26.6 10.755M334.987 603.79a282.917 282.917 0 0 0-39.808 6.324M323.3 601.065s-51.696-30.114-114.103-5.965" stroke="#263238" stroke-width="1.21" stroke-linecap="round" stroke-linejoin="round"/><path opacity=".1" d="M560.928 687.163a228.183 228.183 0 0 1-56.815 49.057 204.105 204.105 0 0 1-20.764 10.841 161.372 161.372 0 0 1-16.563-6.08c-32.293-13.839-59.396-37.284-85.868-60.329-15.96-13.852-32.193-28.035-51.322-37.155a117.992 117.992 0 0 0-82.771-6.826 92.959 92.959 0 0 1 54.736-30.114c-13.666-12.447-32.681-17.667-51.165-17.996-18.485-.33-28.68 1.936-46.72 5.979 6.051-11.099 22.069-21.165 34.717-20.864a313.896 313.896 0 0 1-35.95-2.538c-16.319-2.639-23.633-21.84-26.042-38.174-6.74-44.998.086-92.908 24.651-131.153a133.125 133.125 0 0 1 16.778-21.223c19.617-8.748 40.826-14.613 60.084-19.402a154.538 154.538 0 0 1 103.965 10.726c22.657 10.755 38.718 29.426 57.833 45.142a688.82 688.82 0 0 0 6.095 4.976 570.95 570.95 0 0 0 60.558 42.576c32.035 19.545 64.816 37.972 85.294 70.782 32.638 52.284 5.091 109.213-30.731 151.775z" fill="#000"/><path d="M578.968 685.858a332.758 332.758 0 0 0 30.401 22.485c20.563 1.434 11.343 26.256 11.343 26.256l-17.61 11.329s-30.157-23.962-46.691-31.72c-16.534-7.758 22.557-28.35 22.557-28.35z" fill="#fff"/><path opacity=".3" d="M432.757 424.052s-2.868-27.905-7.313-35.749l-68.359-13.953v-5.292s1.577-9.206-13.652-14.971c-15.229-5.764-46.963 1.721-55.151 7.916-8.188 6.195-5.191 16.864-5.191 16.864s-27.504 13.895-39.866 19.187a315.12 315.12 0 0 0-29.54 15.616s-5.593 64.157-4.488 79.056c1.104 14.9-.904 28.924.372 37.17 1.277 8.245 2.295 12.906 10.942 19.975 8.647 7.07 16.52 17.294 39.205 7.17l-3.169-2.509 149.337-50.305 26.873-80.175z" fill="#000"/><path d="M432.757 424.052s-2.868-27.905-7.313-35.749l-68.359-13.953v-5.292s1.577-9.206-13.652-14.971c-15.229-5.764-46.963 1.721-55.151 7.916-8.188 6.195-5.191 16.864-5.191 16.864s-27.504 13.895-39.866 19.187a315.12 315.12 0 0 0-29.54 15.616s-5.593 64.157-4.488 79.056c1.104 14.9-.904 28.924.372 37.17 1.277 8.245 2.295 12.906 10.942 19.975 8.647 7.07 16.52 17.294 39.205 7.17l-3.169-2.509 149.337-50.305 26.873-80.175z" fill="#00CD7E"/><path opacity=".05" d="M432.757 424.052s-2.868-27.905-7.313-35.749l-68.359-13.953v-5.292s1.577-9.206-13.652-14.971c-15.229-5.764-46.963 1.721-55.151 7.916-8.188 6.195-5.191 16.864-5.191 16.864s-27.504 13.895-39.866 19.187a315.12 315.12 0 0 0-29.54 15.616s-5.593 64.157-4.488 79.056c1.104 14.9-.904 28.924.372 37.17 1.277 8.245 2.295 12.906 10.942 19.975 8.647 7.07 16.52 17.294 39.205 7.17l-3.169-2.509 149.337-50.305 26.873-80.175z" fill="#000"/><path opacity=".1" d="M426.347 391.687h-28.594a11.357 11.357 0 0 0-11.185 9.507l-14.096 84.793s-19.388 1.606-33.126 11.615c-13.737 10.009-47.537-61.461-100.939-61.49 0 0 15.373 35.119 18.771 63.096 0 0-33.369-3.628-38.904 9.436-5.535 13.064 2.509 37.542 16.62 28.063 14.11-9.478 27.418-25.296 36.839-15.301 9.422 9.995 51.624 15.387 51.624 15.387l64.831-32.681 25.153-11.816 13.006-100.609z" fill="#000"/><path opacity=".4" d="M335.575 349.656s16.233 4.503 18.857 9.952c2.624 5.449 2.352 19.245 2.352 19.245a66.63 66.63 0 0 1-17.452 24.019l-12.117-24.019 1.09 27.246s-22.944-3.815-32.738-11.157l-9.737-7.356s-4.216-13.839-3.6-18.528c.617-4.689 18.126-14.211 18.126-14.211l35.219-5.191z" fill="#fff"/><path d="M605.942 769.632c-.459-.975 6.653-13.537 1.089-26.328-5.564-12.792-14.454-7.859-14.454-7.859s-25.282-16.089-35.85-21.18a180.949 180.949 0 0 1-22.055-13.121l-11.243 15.129 10.382 32.121 72.131 21.238z" fill="#00CD7E"/><path d="m591.659 734.671 32.466 19.832s22.829-14.641 33.713-24.751c10.884-10.109 35.334-31.634 35.334-31.634l15.573-20.95s-10.798-13.365-28.795-2.625c-23.259 13.853-51.624 33.929-70.481 33.757 0 0 3.729 23.231-17.624 26.371" fill="#00CD7E"/><path d="M330.083 265.782s14.727 22.284 17.409 29.497c2.681 7.213 4.847 17.896 4.302 23.03-.545 5.134-5.923 32.667-8.604 33.47l-2.61 2.954 1.735 11.658s-11.472 19.918-45.415 5.32c0 0-1.305-23.259-5.435-30.558-4.13-7.299-10.267 1.434-16.448-19.718-6.18-21.151 13.494-43.249 13.494-43.249l41.572-12.404z" fill="#fff"/><path opacity=".5" d="M694.606 670.657s-16.706 2.868-22.113 12.791c-5.406 9.924-15.774 28.236-19.373 37.112-3.599 8.877-32.867 30.315-32.867 30.315l3.886 3.628s23.876-14.77 38.302-28.795c14.426-14.024 46.189-49.329 46.189-49.329s-2.28-2.323-14.024-5.722zM527.516 710.723l-4.087 5.55 12.691 26.342 69.865 25.11 3.226-10.239s1.076-10.382-23.446-18.269c-24.521-7.887-39.464-13.093-46.433-18.513-6.969-5.421-11.816-9.981-11.816-9.981z" fill="#fff"/><path d="M296.857 515.126s-21.395-3.227-31.376 14.268c-9.981 17.495-8.963 25.08-8.963 25.08s14.14 12.835 33.57 12.103c19.431-.731 47.781-23.015 56.959-30.185 9.178-7.17 32.48-27.992 48.354-23.704l1.836-15.014s-1.549-6.74-15.114-4.919c-13.566 1.821-18.901 9.551-23.274 9.551-4.374 0-8.518-4.202-17.309 10.812-.086-.029-30.945 5.449-44.683 2.008z" fill="#fff"/><path d="M324.705 297.817a62.774 62.774 0 0 0 1.936 8.289 9.662 9.662 0 0 0 1.764 3.714c1.62 1.735 4.302 2.179 6.654 2.538.4.027.779.189 1.075.459.199.306.29.669.258 1.032a13.793 13.793 0 0 1-2.352 7.644" stroke="#263238" stroke-width="1.21" stroke-linecap="round" stroke-linejoin="round"/><path opacity=".1" d="m541.856 692.769-14.34 17.882s15.774 14.556 32.05 19.947c16.276 5.392 44.827 15.574 49.602 23.418l-1.836-9.336s-44.626-27.375-54.865-33.914a23.637 23.637 0 0 1-10.611-17.997z" fill="#000"/><path opacity=".1" d="m591.659 734.671 28.565 16.204s14.111-9.651 21.037-16.763c6.926-7.113 15.444-15 20.764-30.932 7.242-22.026 28.006-32.523 28.006-32.523s-28.88 13.609-43.909 24.235c-15.028 10.626-29.698 15.114-38.216 14.34-.086.1 6.754 21.739-16.247 25.439z" fill="#000"/><path d="M314.639 325.364s11.228 8.805 22.944 5.507c-.058 0-11.056 21.797-22.944-5.507z" fill="#fff" stroke="#263238" stroke-width="1.21" stroke-linecap="round" stroke-linejoin="round"/><path d="M314.223 306.335c.315 2.424-.416 4.517-1.635 4.689-1.219.172-2.467-1.735-2.796-4.101-.33-2.366.387-4.517 1.62-4.689 1.233-.172 2.538 1.678 2.811 4.101zM338.672 301.918c.302 2.438-.415 4.532-1.634 4.69-1.219.157-2.495-1.721-2.868-4.073-.373-2.352.387-4.546 1.62-4.703 1.233-.158 2.553 1.663 2.882 4.086z" fill="#263238"/><path d="M312.487 296.053s-6.539-3.37-11.199 3.858M329.251 291.551s6.926-5.923 10.927 0M290.275 318.323s-4.216-6.209-8.604-6.022c-4.388.186-6.209 6.424-4.618 12.447 1.592 6.023 8.217 14.426 13.236 13.637a11.143 11.143 0 0 0 7.17-4.015" stroke="#263238" stroke-width="1.21" stroke-linecap="round" stroke-linejoin="round"/><path d="M330.585 270.786c4.718 3.929 9.722 8.203 12.117 13.982 2.108 4.918 2.581 10.382 4.517 15.358 2.051 5.306 4.302 10.87 4.474 16.663a69.985 69.985 0 0 1-2.093 15.975 88.621 88.621 0 0 1-3.198 13.307c-2.338 6.209-6.64 10.038-12.419 12.978-4.216 2.137-11.213 5.191-15.774 2.309-2.638-1.721-6.625-6.668-9.923-11.229M290.275 338.385s7.428 18.241 5.636 31.06" stroke="#263238" stroke-width="1.21" stroke-linecap="round" stroke-linejoin="round"/><path d="M288.368 315.269a7.179 7.179 0 0 0 2.868-6.424c-.273-2.868-2.209-5.407-1.836-8.203a14.757 14.757 0 0 1 1.434-3.843 16.086 16.086 0 0 0-.903-14.569s23.646 1.104 34.717-5.937c11.07-7.041 19.517-25.052 12.82-33.656-6.697-8.604-19.746 3.14-29.412 4.431-9.665 1.291-44.081 6.783-49.559 20.076-5.477 13.293 2.868 18.025 3.126 30.673.259 12.648.259 36.61 19.173 34.416 0 0-7.07-9.163-2.165-18.642 3.398-3.958 9.737 1.678 9.737 1.678z" fill="#263238"/><path d="M334.715 257.594a29.639 29.639 0 0 1 11.328 20.764c1.047 9.479 17.868 27.905 5.736 38.417 0 0-2.868-11.171-4.474-16.663-1.606-5.493-3.8-15.574-6.582-19.044-2.782-3.47-17.566-15.573-17.566-15.573l11.558-7.901z" fill="#263238"/><path d="M292.455 369.044s11.658 7.686 33.326 7.987l2.538 29.053s-24.378-1.85-42.475-18.513c0 0-4.904-12.906-3.599-18.527 1.304-5.621 12.906-11.099 12.906-11.099" stroke="#263238" stroke-width="1.21" stroke-linecap="round" stroke-linejoin="round"/><path d="m341.455 356.052.688 10.382a43.105 43.105 0 0 1-16.362 10.64l13.566 25.812s16.175-12.59 17.781-25.812c0 0 .144-13.551-2.681-17.423-2.825-3.872-13.093-5.736-13.093-5.736" stroke="#263238" stroke-width="1.21" stroke-linecap="round" stroke-linejoin="round"/><path opacity=".8" d="M275.806 275.762c1.721-4.302 6.467-6.926 11.085-7.614 4.617-.689 9.364-.215 14.039-.33a36.12 36.12 0 0 0 18.34-5.191 24.535 24.535 0 0 0 11.071-15.158" stroke="#fff" stroke-width="1.21" stroke-linecap="round" stroke-linejoin="round"/><path opacity=".8" d="M264.635 274.916c2.868-8.876 12.418-14.34 21.739-15.143 4.618-.401 9.293.129 13.838-.401 4.546-.531 9.407-2.438 11.802-6.396" stroke="#fff" stroke-width="1.21" stroke-linecap="round" stroke-linejoin="round"/><path d="M259.731 556.984c-22.5 11.658-30.487-.359-43.02-10.282-12.534-9.923-4.302-27.69-6.927-56.155-2.624-28.465 3.901-76.877 3.901-76.877s5.607-1.276 21.166-10.798c15.559-9.522 48.282-24.019 48.282-24.019" stroke="#263238" stroke-width="1.21" stroke-linecap="round" stroke-linejoin="round"/><path d="M282.015 513.892s-3.571-11.3-13.637-11.601c-10.067-.301-25.956 4.302-37.284 25.654M266.084 501.617a5.282 5.282 0 0 1-1.822-.43 43.826 43.826 0 0 0-25.812-1.176M232.614 429.114c18.326 20.248 27.246 47.035 35.706 72.991M357.085 374.35s33.226 7.915 49.459 9.808c16.232 1.893 18.857 4.159 18.857 4.159l3.025 11.314" stroke="#263238" stroke-width="1.21" stroke-linecap="round" stroke-linejoin="round"/><path d="M511.943 394.082 398.8 398.427l-9.249 116.369h19.387l98.244-21.998 12.361-95.934-7.6-2.782z" fill="#fff"/><path d="m395.445 518.237 123.754-118.62-12.017 93.181-111.737 25.439z" fill="#00CD7E"/><path opacity=".7" d="m395.445 518.237 123.754-118.62-12.017 93.181-111.737 25.439z" fill="#fff"/><path d="m395.445 515.126 9.894-112.254 114.204-6.008-12.361 95.934-111.737 22.328z" stroke="#263238" stroke-width="1.21" stroke-linecap="round" stroke-linejoin="round"/><path d="M471.404 451.255c-.76 6.826-4.417 12.017-8.146 11.601-3.728-.416-6.137-6.309-5.363-13.15.775-6.84 4.417-12.016 8.16-11.601 3.742.416 6.123 6.31 5.349 13.15zM507.182 492.798s52.298-1.434 68.645 9.307c16.348 10.74 25.956 64.946 23.69 93.697-2.266 28.752-21.997 94.759-21.997 94.759l-37.786-42.776s-18.642-67.685-8.461-94.2c0 0-50.19 2.868-69.936-3.369 0 0-17.71-28.982-48.054-38.575l93.899-18.843z" fill="#263238"/><path d="M585.507 691.68a258.531 258.531 0 0 1-35.965-41.586c-18.283-28.25-43.565-55.367-69.578-76.533-20.95-16.993-25.697-44.669-51.538-58.565-42.833-22.944-79.859 22.672-93.711 31.907-13.853 9.235-37.858 19.76-37.858 19.76s8.747 32.882 34.416 36.768c25.669 3.886 51.71-13.838 64.014-5.277 12.303 8.561 21.409 46.806 62.035 69.219 33.211 18.313 78.454 36.166 101.814 48.211 5.191 2.696 9.062 5.536 12.002 7.17 8.217 4.36 16.821 9.537 24.923 14.67l28.006 17.05s28.121-16.62 38.919-31.949c1.434-2.065 4.431-7.543 7.241-12.906 6.095-11.572 13.839-21.955 24.551-27.676 7.399-4.001 13.995-5.191 13.838-5.607-.703-1.319-14.14-8.188-23.26-4.431-19.301 7.973-57.905 38.617-76.131 36.337a136.34 136.34 0 0 1-23.718-16.562z" stroke="#263238" stroke-width="1.21" stroke-miterlimit="10"/><path d="M585.507 691.68c-16.835 6.754-23.618 17.308-26.228 23.962-23.346-12.117-68.603-29.899-101.814-48.211-40.625-22.485-49.659-60.658-62.035-69.205-12.375-8.547-38.402 9.235-64.028 5.277-25.626-3.958-34.545-36.854-34.545-36.854s23.976-10.382 37.829-19.617c13.852-9.235 45.759-54.893 93.683-31.906 26.457 12.676 30.587 41.586 51.538 58.564 25.955 21.094 51.294 48.283 69.578 76.533a253.399 253.399 0 0 0 36.022 41.457z" fill="#263238"/><path d="M458.985 544.996s-12.906-26.328-33.742-31.434" stroke="#fff" stroke-width="1.21" stroke-linecap="round" stroke-linejoin="round"/><path d="M391.042 492.554c-14.34-3.111-29.985 12.691-36.595 9.723-4.919-2.194-12.993 10.812-12.993 10.812a216.559 216.559 0 0 1-40.152 2.037c-19.258-1.234-28.378 2.523-35.19 12.82l-9.522 25.209s25.11 22.5 51.911 9.393c26.802-13.107 62.408-52.613 86.944-52.484" stroke="#263238" stroke-width="1.21" stroke-linecap="round" stroke-linejoin="round"/><path d="M590.569 733.997s23.46 1.922 17.968-26.113" stroke="#263238" stroke-width="1.21" stroke-miterlimit="10"/><path d="M701.145 690.561c-1.735 3.456-23.245 21.768-41.773 37.772 0-.244 5.191-10.038 7.342-14.183 4.919-9.206 17.667-34.416 41.902-37.771 3.442 2.065-7.471 14.182-7.471 14.182z" fill="#263238"/><path d="M691.924 670.858c-24.521 4.875-30.114 36.337-38.804 49.702-8.69 13.365-32.867 31.548-32.867 31.548M607.031 744.092c4.001 7.314 2.108 15.774 0 21.094a44.19 44.19 0 0 1-3.843 7.572c-34.717-5.736-69.42-24.378-69.42-24.378l-8.905-27.676-1.434-4.431 13.48-18.155" stroke="#263238" stroke-width="1.21" stroke-miterlimit="10"/><path d="M607.031 765.186a44.19 44.19 0 0 1-3.843 7.572c-34.717-5.736-69.42-24.378-69.42-24.378l-8.905-27.676c4.474 5.851 12.791 14.411 25.238 17.925 16.864 4.789 48.068 10.396 56.93 26.557z" fill="#263238"/><path d="m389.551 510.737 9.249-112.31 113.143-4.345 7.6 2.782" stroke="#263238" stroke-width="1.21" stroke-linecap="round" stroke-linejoin="round"/><path d="M608.379 720.56s15.473 2.768 27.361-6.912c11.888-9.679 31.089-31.619 31.089-31.619" stroke="#263238" stroke-width="1.21" stroke-miterlimit="10"/><path d="M624.124 706.622s-3.742 5.621 0 16.907M635.095 701.302a22.943 22.943 0 0 0 1.434 16.907M648.187 693.659s-3.126 9.392 0 17.681" stroke="#263238" stroke-width="1.21" stroke-linecap="round" stroke-linejoin="round"/><path d="m539.92 695.781-12.404 14.942s12.49 13.652 30.114 19.33c17.624 5.679 49.129 15.301 51.739 25.569" stroke="#263238" stroke-width="1.21" stroke-miterlimit="10"/></svg>