<svg width="454" height="490" fill="none" xmlns="http://www.w3.org/2000/svg"><path d="M301.765 31.943H70.77c-5.416 0-9.807 4.39-9.807 9.807v129.499c0 5.416 4.39 9.806 9.806 9.806h230.996c5.416 0 9.806-4.39 9.806-9.806v-129.5c0-5.415-4.39-9.806-9.806-9.806z" fill="#fff"/><path d="M311.571 41.768v3.877H60.963v-3.877a9.87 9.87 0 0 1 9.806-9.86H301.81a9.8 9.8 0 0 1 9.761 9.86z" fill="#00CD7E"/><path d="M301.765 31.943H70.77c-5.416 0-9.807 4.39-9.807 9.807v129.499c0 5.416 4.39 9.806 9.806 9.806h230.996c5.416 0 9.806-4.39 9.806-9.806v-129.5c0-5.415-4.39-9.806-9.806-9.806z" stroke="#263238" stroke-width="1.21" stroke-linecap="round" stroke-linejoin="round"/><path d="M311.571 41.768v3.877H60.963v-3.877a9.87 9.87 0 0 1 9.806-9.86H301.81a9.8 9.8 0 0 1 9.761 9.86v0z" stroke="#263238" stroke-width="1.21" stroke-linecap="round" stroke-linejoin="round"/><path d="M89.111 38.78a2.506 2.506 0 1 1-5.01.092 2.506 2.506 0 0 1 5.01-.091zM102.204 38.78a2.501 2.501 0 0 1-1.513 2.347 2.504 2.504 0 0 1-3.445-1.79 2.506 2.506 0 1 1 4.958-.556zM112.792 41.287a2.506 2.506 0 1 0 0-5.012 2.506 2.506 0 0 0 0 5.012z" fill="#263238"/><path d="M150.728 56.487h-70.86a4.04 4.04 0 0 0-4.04 4.04v34.087a4.04 4.04 0 0 0 4.04 4.04h70.86a4.04 4.04 0 0 0 4.041-4.04V60.527a4.04 4.04 0 0 0-4.041-4.04zM80.467 93.36h68.445" stroke="#263238" stroke-width="1.21" stroke-linecap="round" stroke-linejoin="round"/><path d="M93.497 85.307h-7.945v7.945h7.945v-7.945zM105.119 74.865h-7.945V93.36h7.945V74.865zM118.213 78.043h-7.945v15.5h7.945v-15.5zM131.978 62.607h-7.945v30.4h7.945v-30.4zM145.725 62.843h-7.945v30.4h7.945v-30.4z" fill="#00CD7E" stroke="#263238" stroke-width="1.21" stroke-miterlimit="10"/><path d="M73.984 120.201h6.483M73.984 132.731h6.483M73.984 145.28h6.483M73.984 157.819h6.483M94.768 167.281v-5.04M105.047 167.281v-5.04M115.325 167.281v-5.04M125.613 167.281v-5.04M135.882 167.281v-5.04M146.161 167.281v-5.04M156.439 167.281v-5.04M166.727 167.281v-5.04M177.006 167.281v-5.04M187.284 167.281v-5.04M197.563 167.281v-5.04M207.85 167.281v-5.04M218.129 167.281v-5.04M228.407 167.281v-5.04M238.677 167.281v-5.04M248.574 167.281v-5.04M258.471 167.281v-5.04M268.35 167.281v-5.04" stroke="#263238" stroke-width="1.21" stroke-linecap="round" stroke-linejoin="round"/><path d="M294.519 112.528v48.715c0 3.341-3.396 6.038-7.582 6.038H81.584a8.17 8.17 0 0 1-6.574-2.933 5.156 5.156 0 0 1-1.09-3.069v-48.751c0-3.287 3.396-6.038 7.582-6.038h205.426c4.195 0 7.591 2.697 7.591 6.038z" stroke="#00CD7E" stroke-width="1.21" stroke-linecap="round" stroke-linejoin="round"/><path d="m232.021 18.16-65.557 88.303-25.07 33.769-27.386-17.443-33.514 44.492h-.49a6.052 6.052 0 0 1-5.203-2.933l37.664-49.94 27.367 17.343 18.75-25.197L227 14.528l5.021 3.632z" fill="#263238"/><path d="m215.387 19.304 24.098-14.61-6.665 25.27-4.249-11.695-13.184 1.035z" fill="#263238"/><path d="M432.444 297.334H58.076l-43.194 38.408M58.312 270.448v-74.665M58.312 292.993v-14.437" stroke="#263238" stroke-width="1.21" stroke-linecap="round" stroke-linejoin="round"/><path d="M335.052 149.193a39.774 39.774 0 0 1-30.872 38.763h-.118a43.865 43.865 0 0 1-3.16.59 40.948 40.948 0 0 1-5.684.409 39.788 39.788 0 0 1-1.471-79.541h1.816a39.37 39.37 0 0 1 15.581 3.341 39.799 39.799 0 0 1 23.908 36.438z" fill="#FFB000" stroke="#2E353A" stroke-width="1.21" stroke-linecap="round" stroke-linejoin="round"/><path opacity=".4" d="M311.217 112.765c-45.945-2.389-46.163 48.614-46.163 48.614s-7.009-16.644 4.44-35.067c6.356-10.306 17.525-14.855 26.142-16.871a39.184 39.184 0 0 1 15.581 3.324z" fill="#fff"/><path d="M335.052 149.193a39.78 39.78 0 0 1-30.981 38.763 38.712 38.712 0 0 1-8.844.999 39.793 39.793 0 0 1-29.387-67.396 39.79 39.79 0 0 1 27.916-12.172h1.471a39.777 39.777 0 0 1 28.165 11.647 39.786 39.786 0 0 1 11.66 28.159v0z" stroke="#263238" stroke-width="1.21" stroke-linecap="round" stroke-linejoin="round"/><path d="M335.052 149.193a39.78 39.78 0 0 1-30.981 38.763H302.6a39.8 39.8 0 0 1-32.359-62.778 39.803 39.803 0 0 1 23.515-15.791h1.471a39.777 39.777 0 0 1 28.165 11.647 39.786 39.786 0 0 1 11.66 28.159v0z" stroke="#263238" stroke-width="1.21" stroke-linecap="round" stroke-linejoin="round"/><path d="m308.938 174.055 1.026 4.204-6.883 1.679-1.026-4.195c-6.156 0-11.105-4.004-12.712-10.423l-.472-1.907 7.591-2.724.481 1.988c.954 3.896 3.532 5.775 6.738 4.985a4.927 4.927 0 0 0 4.113-5.629 4.238 4.238 0 0 0-.182-.763c-.908-3.741-5.212-6.093-10.188-8.508-5.883-2.851-11.949-6.465-13.619-13.275-1.617-6.638.417-12.167 5.665-14.909l-1.026-4.204 6.865-1.68 1.035 4.195c5.966-.082 10.415 3.85 12.049 10.641l.336 1.381-7.582 2.724-.381-1.526c-1.008-4.131-3.133-5.875-5.957-5.184-2.823.69-4.004 2.851-3.178 6.201.908 3.75 5.267 6.011 10.188 8.526 5.82 2.951 11.959 6.465 13.62 13.257 1.716 6.547-.962 12.376-6.501 15.146z" stroke="#263238" stroke-width="1.21" stroke-miterlimit="10"/><path d="m308.938 174.055 1.026 4.204-6.883 1.679-1.026-4.195c-6.156 0-11.105-4.004-12.712-10.423l-.472-1.907 7.591-2.724.481 1.988c.954 3.896 3.532 5.775 6.738 4.985a4.927 4.927 0 0 0 4.113-5.629 4.238 4.238 0 0 0-.182-.763c-.908-3.741-5.212-6.093-10.188-8.508-5.883-2.851-11.949-6.465-13.619-13.275-1.617-6.638.417-12.167 5.665-14.909l-1.026-4.204 6.865-1.68 1.035 4.195c5.966-.082 10.415 3.85 12.049 10.641l.336 1.381-7.582 2.724-.381-1.526c-1.008-4.131-3.133-5.875-5.957-5.184-2.823.69-4.004 2.851-3.178 6.201.908 3.75 5.267 6.011 10.188 8.526 5.82 2.951 11.959 6.465 13.62 13.257 1.716 6.547-.962 12.376-6.501 15.146z" fill="#F3D44A" stroke="#2E353A" stroke-width="1.21" stroke-linecap="round" stroke-linejoin="round"/><path d="m274.888 183.398 8.408-.382M270.847 180.601l7.328-.617M267.56 177.659l7.328-.626M266.552 121.599h6.284M269.658 118.712l6.256-.282M273.58 115.806l6.592-.626" stroke="#263238" stroke-width="1.21" stroke-linecap="round" stroke-linejoin="round"/><path opacity=".3" d="M304.18 187.956h-.118a39.768 39.768 0 0 1-48.147-33.625 39.777 39.777 0 0 1 21.936-40.894 39.755 39.755 0 0 1 15.896-4.023h1.099c-9.698 3.06-25.969 10.896-30.318 27.167-6.138 23.136 7.699 49.423 39.652 51.375z" fill="#000"/><path d="M357.579 86.569a24.095 24.095 0 0 1-28.829 8.362l-.136-.063c-.753-.327-1.48-.69-2.197-1.09a20.95 20.95 0 0 1-2.315-1.453 24.11 24.11 0 0 1-5.452-32.418 24.108 24.108 0 0 1 31.956-7.715l.536.345c.245.136.49.318.744.49.255.173.736.536 1.09.817a24.115 24.115 0 0 1 4.603 32.724z" fill="#FFB000" stroke="#2E353A" stroke-width="1.21" stroke-linecap="round" stroke-linejoin="round"/><path opacity=".4" d="M321.269 86.896s-3.932-11.587 1.298-20.103c6.574-10.688 16.644-15.564 30.345-12.93 0 0-7.427-5.022-19.867-1.462-12.439 3.559-19.104 20.675-11.776 34.495z" fill="#fff"/><path d="M357.58 86.578a24.11 24.11 0 0 1-28.829 8.344 23.25 23.25 0 0 1-4.704-2.587 24.099 24.099 0 0 1 27.068-39.789c.245.145.499.309.735.481a24.099 24.099 0 0 1 5.73 33.55v0z" stroke="#263238" stroke-width="1.21" stroke-linecap="round" stroke-linejoin="round"/><path d="M357.579 86.578a24.104 24.104 0 0 1-28.829 8.344l-.726-.48a24.1 24.1 0 0 1 6.019-42.226 24.096 24.096 0 0 1 17.071.33c.246.145.5.309.736.481a24.099 24.099 0 0 1 5.729 33.55v0z" stroke="#263238" stroke-width="1.21" stroke-linecap="round" stroke-linejoin="round"/><path d="m336.005 89.774-.953 2.433-3.986-1.57.953-2.443a7.808 7.808 0 0 1-2.633-9.561l.445-1.099 4.713 1.28-.454 1.163c-.908 2.26-.282 4.077 1.579 4.812A2.982 2.982 0 0 0 339.846 83c.854-2.188-.454-4.83-2.061-7.754-1.907-3.46-3.632-7.364-2.097-11.305 1.534-3.94 4.458-5.874 7.999-5.393l.963-2.434 4.022 1.571-.953 2.415c2.987 2.044 3.804 5.449 2.26 9.48l-.317.79-4.713-1.28.354-.908c.908-2.388.5-3.996-1.098-4.64-1.598-.645-2.97 0-3.732 1.961-.863 2.188.508 4.794 2.052 7.754 1.816 3.496 3.632 7.373 2.106 11.305a7.755 7.755 0 0 1-8.626 5.212z" stroke="#263238" stroke-width="1.21" stroke-miterlimit="10"/><path d="m336.005 89.774-.953 2.433-3.986-1.57.953-2.443a7.808 7.808 0 0 1-2.633-9.561l.445-1.099 4.713 1.28-.454 1.163c-.908 2.26-.282 4.077 1.579 4.812A2.982 2.982 0 0 0 339.846 83c.854-2.188-.454-4.83-2.061-7.754-1.907-3.46-3.632-7.364-2.097-11.305 1.534-3.94 4.458-5.874 7.999-5.393l.963-2.434 4.022 1.571-.953 2.415c2.987 2.044 3.804 5.449 2.26 9.48l-.317.79-4.713-1.28.354-.908c.908-2.388.5-3.996-1.098-4.64-1.598-.645-2.97 0-3.732 1.961-.863 2.188.508 4.794 2.052 7.754 1.816 3.496 3.632 7.373 2.106 11.305a7.755 7.755 0 0 1-8.626 5.212z" fill="#F3D44A" stroke="#2E353A" stroke-width="1.21" stroke-linecap="round" stroke-linejoin="round"/><path opacity=".3" d="M350.542 52.2c-6.573-1.17-14.9-1.815-19.385 1.1-8.254 5.293-13.393 11.967-13.312 22.781.082 10.815 10.179 18.396 10.179 18.396l.59.427a23.629 23.629 0 0 1-4.54-2.533 24.1 24.1 0 0 1 8.968-42.623 24.1 24.1 0 0 1 17.528 2.49l-.028-.037z" fill="#000"/><path d="M278.211 76.835a21.246 21.246 0 0 1-16.798 20.448h-.136a24.32 24.32 0 0 1-2.143.29 21.21 21.21 0 0 1-3.078-42.276h1.344c.272 0 .799 0 1.207.055a21.24 21.24 0 0 1 19.604 21.483z" fill="#FFB000" stroke="#2E353A" stroke-width="1.06" stroke-linecap="round" stroke-linejoin="round"/><path opacity=".4" d="M251.961 95.158s-8.617-6.465-9.071-15.254c-.545-11.05 4.358-19.613 15.636-24.516 0 0-7.9.055-15.182 8.835-7.282 8.78-3.632 24.534 8.617 30.935z" fill="#fff"/><path d="M278.22 76.844a21.256 21.256 0 0 1-16.816 20.43c-1.548.335-3.129.49-4.712.463a21.258 21.258 0 0 1-14.33-35.762 21.256 21.256 0 0 1 14.202-6.678c.258-.014.515-.014.772 0a21.254 21.254 0 0 1 20.884 21.547z" stroke="#263238" stroke-width="1.06" stroke-linecap="round" stroke-linejoin="round"/><path d="M278.22 76.844a21.256 21.256 0 0 1-16.816 20.43h-.772a21.258 21.258 0 0 1-20.596-19.2 21.256 21.256 0 0 1 16.528-22.796c.258-.013.515-.013.772.001a21.257 21.257 0 0 1 20.884 21.565v0z" stroke="#263238" stroke-width="1.06" stroke-linecap="round" stroke-linejoin="round"/><path d="m264.119 89.892.518 2.243-3.687.844-.517-2.252a6.892 6.892 0 0 1-6.683-5.647l-.227-1.017 4.068-1.417.254 1.072c.481 2.079 1.816 3.105 3.541 2.724a2.635 2.635 0 0 0 2.243-2.906 3.002 3.002 0 0 0-.091-.409c-.472-2.024-2.724-3.296-5.366-4.621-3.115-1.571-6.311-3.541-7.155-7.183-.845-3.64.317-6.492 3.132-7.908l-.508-2.252 3.677-.835.509 2.233c3.187 0 5.493 2.089 6.356 5.766l.163.736-4.068 1.416-.19-.826c-.5-2.207-1.626-3.16-3.106-2.833-1.48.327-2.161 1.48-1.743 3.287.472 2.025 2.724 3.241 5.366 4.621 3.087 1.626 6.356 3.55 7.155 7.183a6.846 6.846 0 0 1-3.641 7.981z" stroke="#263238" stroke-width="1.06" stroke-miterlimit="10"/><path d="m264.119 89.892.518 2.243-3.687.844-.517-2.252a6.892 6.892 0 0 1-6.683-5.647l-.227-1.017 4.068-1.417.254 1.072c.481 2.079 1.816 3.105 3.541 2.724a2.635 2.635 0 0 0 2.243-2.906 3.002 3.002 0 0 0-.091-.409c-.472-2.024-2.724-3.296-5.366-4.621-3.115-1.571-6.311-3.541-7.155-7.183-.845-3.64.317-6.492 3.132-7.908l-.508-2.252 3.677-.835.509 2.233c3.187 0 5.493 2.089 6.356 5.766l.163.736-4.068 1.416-.19-.826c-.5-2.207-1.626-3.16-3.106-2.833-1.48.327-2.161 1.48-1.743 3.287.472 2.025 2.724 3.241 5.366 4.621 3.087 1.626 6.356 3.55 7.155 7.183a6.846 6.846 0 0 1-3.641 7.981z" fill="#F3D44A" stroke="#2E353A" stroke-width="1.06" stroke-linecap="round" stroke-linejoin="round"/><path opacity=".3" d="M255.983 55.334c-5.375 2.424-11.731 6.101-13.547 10.46-3.369 7.963-3.786 15.372 1.662 23.208 5.448 7.836 16.571 8.308 16.571 8.308h.644c-1.492.314-3.015.46-4.54.436a21.253 21.253 0 0 1-20.128-20.871 21.253 21.253 0 0 1 19.42-21.532l-.082-.01z" fill="#000"/><path d="M355.176 435.107a144.512 144.512 0 0 1-35.975 31.063 128.988 128.988 0 0 1-13.148 6.864c-31.135 13.993-66.61 14.901-99.789 6.856-69.752-16.907-106.772-78.506-111.466-146.842-1.262-18.469-4.086-38.418 3.396-55.996 7.482-17.579 22.609-28.484 39.725-36.066 12.431-5.539 25.851-9.253 38.045-12.285a97.885 97.885 0 0 1 65.839 6.791c14.338 6.81 24.516 18.633 36.611 28.584l3.859 3.151a361.597 361.597 0 0 0 38.345 26.959c20.284 12.376 41.05 24.043 54.008 44.818 20.675 33.106 3.232 69.154-19.45 96.103z" fill="#fff"/><path d="M282.228 267.227a250.823 250.823 0 0 1-3.859-3.16c-12.05-9.988-22.283-21.792-36.611-28.575a97.933 97.933 0 0 0-65.839-6.791c-29.002 7.2-64.977 18.287-77.789 48.36-7.49 17.533-4.657 37.518-3.386 55.987 4.749 68.363 41.768 129.935 111.52 146.842 38 9.207 78.86 6.683 112.937-13.72a144.512 144.512 0 0 0 35.975-31.063c22.7-26.949 40.125-62.997 19.468-96.103-12.948-20.82-33.705-32.442-53.999-44.818a362.419 362.419 0 0 1-38.417-26.959z" stroke="#263238" stroke-width="1.21" stroke-miterlimit="10"/><path d="M176.554 389.117a100.54 100.54 0 0 0-16.843 6.81M212.112 382.316a179.206 179.206 0 0 0-25.206 4.004M204.712 380.591s-32.734-19.068-72.25-3.777" stroke="#263238" stroke-width="1.21" stroke-linecap="round" stroke-linejoin="round"/><path opacity=".1" d="M355.176 435.107a144.512 144.512 0 0 1-35.975 31.063 128.988 128.988 0 0 1-13.148 6.864 102.09 102.09 0 0 1-10.487-3.85c-20.448-8.762-37.609-23.608-54.371-38.199-10.106-8.772-20.385-17.752-32.497-23.527a74.718 74.718 0 0 0-52.41-4.322 58.859 58.859 0 0 1 34.658-19.068c-8.653-7.881-20.693-11.186-32.397-11.395-11.704-.209-18.16 1.226-29.583 3.786 3.832-7.028 13.974-13.402 21.983-13.211a198.738 198.738 0 0 1-22.764-1.607c-10.333-1.671-14.964-13.829-16.489-24.171-4.268-28.493.055-58.829 15.609-83.046a84.293 84.293 0 0 1 10.623-13.438c12.422-5.539 25.851-9.253 38.045-12.285a97.852 97.852 0 0 1 65.83 6.791c14.347 6.81 24.516 18.633 36.62 28.584 1.28 1.053 2.561 2.107 3.859 3.151a361.545 361.545 0 0 0 38.345 26.958c20.285 12.377 41.041 24.044 54.008 44.819 20.666 33.106 3.223 69.154-19.459 96.103z" fill="#000"/><path d="M366.599 434.281a210.474 210.474 0 0 0 19.25 14.237c13.02.908 7.182 16.626 7.182 16.626l-11.15 7.173s-19.096-15.173-29.565-20.085c-10.469-4.912 14.283-17.951 14.283-17.951z" fill="#fff"/><path opacity=".3" d="M274.019 268.507s-1.816-17.669-4.631-22.636l-43.284-8.835v-3.351s.999-5.829-8.644-9.479c-9.643-3.65-29.737 1.09-34.922 5.012-5.184 3.923-3.287 10.678-3.287 10.678s-17.415 8.799-25.242 12.149a199.642 199.642 0 0 0-18.705 9.888s-3.541 40.624-2.842 50.058c.699 9.434-.572 18.315.236 23.536.808 5.221 1.453 8.172 6.928 12.648 5.475 4.477 10.46 10.951 24.825 4.54l-2.007-1.589 94.559-31.852 17.016-50.767z" fill="#000"/><path d="M274.019 268.507s-1.816-17.669-4.631-22.636l-43.284-8.835v-3.351s.999-5.829-8.644-9.479c-9.643-3.65-29.737 1.09-34.922 5.012-5.184 3.923-3.287 10.678-3.287 10.678s-17.415 8.799-25.242 12.149a199.642 199.642 0 0 0-18.705 9.888s-3.541 40.624-2.842 50.058c.699 9.434-.572 18.315.236 23.536.808 5.221 1.453 8.172 6.928 12.648 5.475 4.477 10.46 10.951 24.825 4.54l-2.007-1.589 94.559-31.852 17.016-50.767z" fill="#00CD7E"/><path opacity=".05" d="M274.019 268.507s-1.816-17.669-4.631-22.636l-43.284-8.835v-3.351s.999-5.829-8.644-9.479c-9.643-3.65-29.737 1.09-34.922 5.012-5.184 3.923-3.287 10.678-3.287 10.678s-17.415 8.799-25.242 12.149a199.642 199.642 0 0 0-18.705 9.888s-3.541 40.624-2.842 50.058c.699 9.434-.572 18.315.236 23.536.808 5.221 1.453 8.172 6.928 12.648 5.475 4.477 10.46 10.951 24.825 4.54l-2.007-1.589 94.559-31.852 17.016-50.767z" fill="#000"/><path opacity=".1" d="M269.96 248.014h-18.105a7.189 7.189 0 0 0-7.083 6.02l-8.925 53.69s-12.276 1.017-20.975 7.355c-8.699 6.337-30.1-38.917-63.914-38.935 0 0 9.734 22.236 11.886 39.952 0 0-21.13-2.298-24.634 5.974-3.505 8.272 1.589 23.772 10.523 17.77 8.935-6.002 17.361-16.017 23.327-9.689 5.965 6.329 32.688 9.743 32.688 9.743l41.05-20.693 15.927-7.482 8.235-63.705z" fill="#000"/><path opacity=".4" d="M212.484 221.4s10.279 2.851 11.94 6.302c1.662 3.45 1.489 12.185 1.489 12.185a42.176 42.176 0 0 1-11.05 15.209l-7.673-15.209.691 17.252s-14.528-2.415-20.73-7.064l-6.165-4.658s-2.67-8.762-2.28-11.732c.391-2.969 11.478-8.998 11.478-8.998l22.3-3.287z" fill="#fff"/><path d="M383.678 487.326c-.29-.617 4.213-8.571.69-16.671-3.523-8.099-9.152-4.976-9.152-4.976s-16.008-10.187-22.7-13.411a114.393 114.393 0 0 1-13.965-8.308l-7.119 9.58 6.574 20.339 45.672 13.447z" fill="#00CD7E"/><path d="m374.635 465.189 20.557 12.558s14.455-9.271 21.347-15.672c6.892-6.402 22.373-20.031 22.373-20.031l9.861-13.266s-6.837-8.462-18.233-1.661c-14.728 8.771-32.688 21.483-44.628 21.374 0 0 2.361 14.71-11.159 16.698" fill="#00CD7E"/><path d="M209.006 168.291s9.326 14.111 11.024 18.678c1.698 4.567 3.069 11.332 2.724 14.582-.345 3.251-3.75 20.685-5.448 21.193l-1.653 1.871 1.099 7.382s-7.264 12.612-28.757 3.368c0 0-.826-14.727-3.441-19.349-2.615-4.622-6.501.908-10.415-12.485-3.913-13.393 8.545-27.386 8.545-27.386l26.322-7.854z" fill="#fff"/><path opacity=".5" d="M439.82 424.656s-10.578 1.816-14.001 8.099c-3.423 6.284-9.988 17.879-12.267 23.499-2.279 5.621-20.812 19.196-20.812 19.196l2.461 2.297s15.118-9.353 24.253-18.233c9.134-8.88 29.246-31.235 29.246-31.235s-1.443-1.471-8.88-3.623zM334.02 450.026l-2.588 3.513 8.036 16.68 44.238 15.9 2.043-6.484s.681-6.574-14.846-11.568c-15.527-4.994-24.988-8.29-29.401-11.722-4.413-3.432-7.482-6.319-7.482-6.319z" fill="#fff"/><path d="M187.968 326.174s-13.547-2.043-19.867 9.035-5.675 15.881-5.675 15.881 8.953 8.126 21.256 7.663c12.304-.463 30.255-14.573 36.066-19.113 5.811-4.54 20.566-17.724 30.618-15.009l1.162-9.507s-.981-4.268-9.57-3.114c-8.59 1.153-11.968 6.047-14.737 6.047-2.77 0-5.394-2.661-10.96 6.846-.054-.018-19.594 3.451-28.293 1.271z" fill="#fff"/><path d="M205.601 188.576a39.643 39.643 0 0 0 1.226 5.248c.199.855.58 1.657 1.117 2.352 1.026 1.099 2.724 1.38 4.213 1.607.253.017.493.12.681.291.126.193.184.423.164.653a8.735 8.735 0 0 1-1.49 4.84" stroke="#263238" stroke-width="1.21" stroke-linecap="round" stroke-linejoin="round"/><path opacity=".1" d="m343.1 438.657-9.08 11.323s9.988 9.216 20.294 12.63c10.305 3.414 28.384 9.861 31.407 14.828l-1.162-5.911s-28.257-17.334-34.74-21.474a14.973 14.973 0 0 1-6.719-11.396z" fill="#000"/><path opacity=".1" d="m374.635 465.189 18.087 10.261s8.935-6.111 13.32-10.615c4.386-4.504 9.78-9.498 13.148-19.586 4.586-13.946 17.733-20.593 17.733-20.593s-18.287 8.617-27.803 15.345c-9.515 6.728-18.804 9.571-24.198 9.08-.054.064 4.277 13.765-10.287 16.108z" fill="#000"/><path d="M199.227 206.019s7.11 5.575 14.528 3.486c-.036 0-7.001 13.802-14.528-3.486z" fill="#fff" stroke="#263238" stroke-width="1.21" stroke-linecap="round" stroke-linejoin="round"/><path d="M198.964 193.97c.2 1.534-.263 2.86-1.035 2.969-.772.109-1.562-1.099-1.771-2.597-.209-1.498.245-2.86 1.026-2.969.781-.109 1.607 1.062 1.78 2.597zM214.445 191.173c.191 1.544-.263 2.869-1.035 2.969-.772.1-1.58-1.09-1.816-2.579s.245-2.878 1.026-2.978c.781-.1 1.616 1.053 1.825 2.588z" fill="#263238"/><path d="M197.865 187.459s-4.14-2.134-7.091 2.443M208.48 184.608s4.385-3.75 6.919 0M183.8 201.56s-2.669-3.931-5.448-3.813c-2.778.118-3.931 4.068-2.923 7.881 1.008 3.814 5.202 9.135 8.38 8.635a7.054 7.054 0 0 0 4.54-2.542" stroke="#263238" stroke-width="1.21" stroke-linecap="round" stroke-linejoin="round"/><path d="M209.324 171.46c2.988 2.488 6.156 5.194 7.673 8.853 1.335 3.115 1.634 6.574 2.86 9.725 1.298 3.359 2.724 6.883 2.833 10.551a44.303 44.303 0 0 1-1.326 10.115 55.903 55.903 0 0 1-2.025 8.426c-1.48 3.932-4.204 6.356-7.863 8.218-2.669 1.353-7.1 3.287-9.988 1.461-1.671-1.089-4.195-4.222-6.283-7.109M183.8 214.263s4.704 11.55 3.569 19.668" stroke="#263238" stroke-width="1.21" stroke-linecap="round" stroke-linejoin="round"/><path d="M182.593 199.626a4.54 4.54 0 0 0 1.816-4.067c-.173-1.816-1.399-3.424-1.163-5.194.188-.85.494-1.669.908-2.434a10.19 10.19 0 0 0-.572-9.225s14.973.699 21.983-3.759 12.358-15.863 8.118-21.311c-4.241-5.448-12.504 1.989-18.623 2.806-6.12.817-27.912 4.295-31.381 12.712-3.468 8.417 1.816 11.413 1.979 19.422.164 8.009.164 23.181 12.14 21.792 0 0-4.476-5.802-1.371-11.804 2.152-2.506 6.166 1.062 6.166 1.062z" fill="#263238"/><path d="M211.939 163.107a18.76 18.76 0 0 1 7.173 13.147c.663 6.002 11.314 17.67 3.632 24.326 0 0-1.816-7.074-2.833-10.551-1.017-3.478-2.406-9.861-4.167-12.058-1.762-2.198-11.123-9.861-11.123-9.861l7.318-5.003z" fill="#263238"/><path d="M185.18 233.676s7.383 4.867 21.102 5.058l1.608 18.396s-15.436-1.171-26.895-11.722c0 0-3.106-8.172-2.279-11.732.826-3.559 8.172-7.028 8.172-7.028" stroke="#263238" stroke-width="1.21" stroke-linecap="round" stroke-linejoin="round"/><path d="m216.207 225.45.436 6.574a27.3 27.3 0 0 1-10.361 6.737l8.59 16.344s10.242-7.972 11.259-16.344c0 0 .091-8.58-1.698-11.032-1.788-2.452-8.29-3.632-8.29-3.632" stroke="#263238" stroke-width="1.21" stroke-linecap="round" stroke-linejoin="round"/><path opacity=".8" d="M174.639 174.611c1.089-2.724 4.095-4.386 7.018-4.822 2.924-.435 5.93-.136 8.89-.208a22.879 22.879 0 0 0 11.613-3.287 15.538 15.538 0 0 0 7.01-9.598" stroke="#fff" stroke-width="1.21" stroke-linecap="round" stroke-linejoin="round"/><path opacity=".8" d="M167.565 174.075c1.816-5.62 7.864-9.08 13.766-9.588 2.923-.254 5.883.082 8.762-.254 2.878-.336 5.956-1.544 7.473-4.05" stroke="#fff" stroke-width="1.21" stroke-linecap="round" stroke-linejoin="round"/><path d="M164.46 352.679c-14.247 7.382-19.304-.227-27.24-6.511-7.936-6.283-2.724-17.533-4.386-35.557-1.661-18.024 2.47-48.678 2.47-48.678s3.55-.808 13.402-6.837 30.573-15.209 30.573-15.209" stroke="#263238" stroke-width="1.21" stroke-linecap="round" stroke-linejoin="round"/><path d="M178.57 325.393s-2.261-7.155-8.635-7.345c-6.374-.191-16.435 2.724-23.608 16.244M168.482 317.621a3.374 3.374 0 0 1-1.153-.272 27.742 27.742 0 0 0-16.344-.745M147.29 271.713c11.604 12.82 17.252 29.782 22.609 46.217M226.104 237.036s21.038 5.012 31.317 6.211c10.279 1.198 11.94 2.633 11.94 2.633l1.916 7.164" stroke="#263238" stroke-width="1.21" stroke-linecap="round" stroke-linejoin="round"/><path d="m324.159 249.53-71.641 2.751-5.857 73.684h12.276l62.207-13.928 7.827-60.745-4.812-1.762z" fill="#fff"/><path d="m250.393 328.145 78.36-75.11-7.609 59.002-70.751 16.108z" fill="#00CD7E"/><path opacity=".7" d="m250.393 328.145 78.36-75.11-7.609 59.002-70.751 16.108z" fill="#fff"/><path d="m250.393 326.174 6.265-71.078 72.313-3.804-7.827 60.745-70.751 14.137z" stroke="#263238" stroke-width="1.21" stroke-linecap="round" stroke-linejoin="round"/><path d="M298.49 285.732c-.481 4.322-2.797 7.609-5.158 7.346-2.36-.264-3.886-3.995-3.396-8.327.491-4.331 2.797-7.609 5.167-7.345 2.37.263 3.877 3.995 3.387 8.326zM321.144 312.037s33.115-.908 43.466 5.893c10.352 6.801 16.435 41.123 15.001 59.328-1.435 18.206-13.929 60.001-13.929 60.001l-23.926-27.086s-11.804-42.857-5.357-59.646c0 0-31.78 1.816-44.283-2.134 0 0-11.214-18.351-30.427-24.425l59.455-11.931z" fill="#263238"/><path d="M370.739 437.967a163.69 163.69 0 0 1-22.772-26.332c-11.577-17.887-27.585-35.058-44.056-48.46-13.266-10.759-16.272-28.284-32.634-37.082-27.122-14.528-50.567 14.355-59.338 20.203-8.771 5.847-23.971 12.512-23.971 12.512s5.539 20.82 21.792 23.281c16.253 2.461 32.743-8.762 40.533-3.341 7.791 5.42 13.557 29.637 39.28 43.829 21.029 11.595 49.677 22.899 64.468 30.527 3.287 1.707 5.739 3.505 7.6 4.54 5.203 2.76 10.651 6.038 15.781 9.289l17.733 10.796s17.806-10.524 24.644-20.231c.908-1.307 2.805-4.776 4.585-8.172 3.859-7.327 8.762-13.901 15.545-17.524 4.685-2.533 8.862-3.287 8.762-3.55-.445-.836-8.953-5.185-14.728-2.806-12.221 5.048-36.665 24.452-48.205 23.009a86.29 86.29 0 0 1-15.019-10.488z" stroke="#263238" stroke-width="1.21" stroke-miterlimit="10"/><path d="M370.739 437.967c-10.66 4.277-14.954 10.96-16.607 15.173-14.782-7.673-43.439-18.932-64.468-30.527-25.724-14.237-31.444-38.408-39.28-43.82-7.836-5.412-24.316 5.847-40.542 3.341-16.226-2.506-21.874-23.335-21.874-23.335s15.182-6.574 23.953-12.422c8.771-5.847 28.974-34.758 59.32-20.203 16.752 8.027 19.367 26.332 32.633 37.083 16.435 13.357 32.479 30.572 44.056 48.46a160.487 160.487 0 0 0 22.809 26.25z" fill="#263238"/><path d="M290.626 345.088s-8.172-16.671-21.365-19.903" stroke="#fff" stroke-width="1.21" stroke-linecap="round" stroke-linejoin="round"/><path d="M247.606 311.882c-9.08-1.97-18.987 8.036-23.173 6.157-3.114-1.39-8.226 6.846-8.226 6.846a137.098 137.098 0 0 1-25.424 1.289c-12.195-.781-17.969 1.598-22.282 8.118l-6.03 15.963s15.9 14.246 32.87 5.947c16.971-8.299 39.516-33.315 55.052-33.233" stroke="#263238" stroke-width="1.21" stroke-linecap="round" stroke-linejoin="round"/><path d="M373.945 464.762s14.854 1.217 11.377-16.534" stroke="#263238" stroke-width="1.21" stroke-miterlimit="10"/><path d="M443.96 437.259c-1.098 2.188-14.718 13.783-26.45 23.917 0-.155 3.287-6.356 4.649-8.98 3.115-5.83 11.187-21.792 26.532-23.917 2.179 1.307-4.731 8.98-4.731 8.98z" fill="#263238"/><path d="M438.122 424.783c-15.527 3.087-19.068 23.009-24.57 31.471-5.503 8.463-20.812 19.976-20.812 19.976M384.368 471.155c2.534 4.63 1.335 9.988 0 13.356a27.978 27.978 0 0 1-2.433 4.795c-21.983-3.632-43.956-15.436-43.956-15.436l-5.639-17.525-.908-2.806 8.535-11.495" stroke="#263238" stroke-width="1.21" stroke-miterlimit="10"/><path d="M384.368 484.511a27.978 27.978 0 0 1-2.433 4.795c-21.983-3.632-43.956-15.436-43.956-15.436l-5.639-17.525c2.833 3.705 8.099 9.126 15.981 11.35 10.678 3.033 30.436 6.583 36.047 16.816z" fill="#263238"/><path d="m246.661 323.396 5.857-71.115 71.641-2.751 4.812 1.762" stroke="#263238" stroke-width="1.21" stroke-linecap="round" stroke-linejoin="round"/><path d="M385.222 456.254s9.797 1.753 17.325-4.376c7.527-6.129 19.685-20.022 19.685-20.022" stroke="#263238" stroke-width="1.21" stroke-miterlimit="10"/><path d="M395.192 447.429s-2.37 3.559 0 10.705M402.138 444.06a14.527 14.527 0 0 0 .908 10.705M410.428 439.22s-1.979 5.948 0 11.196" stroke="#263238" stroke-width="1.21" stroke-linecap="round" stroke-linejoin="round"/><path d="m341.874 440.564-7.854 9.462s7.909 8.644 19.068 12.239c11.159 3.596 31.108 9.689 32.76 16.19" stroke="#263238" stroke-width="1.21" stroke-miterlimit="10"/></svg>